# xmcd
#
# Track frame offsets:
#	150
#	12037
#	24852
#	41002
#	55080
#	69162
#	83200
#	98232
#	108652
#	121985
#	134827
#	147515
#	160437
#	176295
#	189567
#	202325
#	215812
#	227382
#	240800
#	256227
#	270890
#	286302
#	303135
#
# Disc length: 4218 seconds
#
# Revision: 1
# Processed by: cddbd v1.5PL3 Copyright (c) Steve Scherf et al.
# Submitted via: audiograbber 1.83.01
#
DISCID=3c107817
DTITLE=Plava Trava Zaborava - Country and Hat Trick
DYEAR=1992
DGENRE=Country
TTITLE0=I'm ready to go
TTITLE1=Corina Corina
TTITLE2=An American dream
TTITLE3=Cripple Creek
TTITLE4=Thank God I'm a country girl
TTITLE5=Country boy
TTITLE6=Blue moon of Kentucky
TTITLE7=Yugo goes to Nashville
TTITLE8=Evangeline
TTITLE9=Shout Full Of Love
TTITLE10=Georgia on a fast train
TTITLE11=Take me home country roads
TTITLE12=One way rider
TTITLE13=Get back to the country
TTITLE14=Children go where i send thee
TTITLE15=Burning my love
TTITLE16=The day You say goodbye
TTITLE17=Ring of fire
TTITLE18=Oh Maryanne
TTITLE19=Dance dance dance
TTITLE20=Grandpa
TTITLE21=The devil went down to Georgia
TTITLE22=Showdown
EXTD=
EXTT0=
EXTT1=
EXTT2=
EXTT3=
EXTT4=
EXTT5=
EXTT6=
EXTT7=
EXTT8=
EXTT9=
EXTT10=
EXTT11=
EXTT12=
EXTT13=
EXTT14=
EXTT15=
EXTT16=
EXTT17=
EXTT18=
EXTT19=
EXTT20=
EXTT21=
EXTT22=
PLAYORDER=
